<?xml version="1.0" standalone="no"?><!DOCTYPE svg PUBLIC "-//W3C//DTD SVG 1.1//EN" "http://www.w3.org/Graphics/SVG/1.1/DTD/svg11.dtd"><svg viewBox="0 0 263.3599853515625 263" preserveAspectRatio="xMidYMid meet" class=" logo" style="width: 60%; height: 60%;" id="bghgbfbc"><defs id="SvgjsDefs1017"></defs><g id="SvgjsG1018" featurekey="root" fill="#33bb89" transform="matrix(1,0,0,1,0,0)"></g><g id="SvgjsG1019" featurekey="symbol1" fill="#000000" transform="matrix(1.9280208349227905,0,0,1.9280208349227905,882.000117677055,-461.99238041069293)"><circle class="st0" cx="-413" cy="299.8" r="14.9" style="fill: none; stroke: #000; stroke-width: 2; stroke-miterlimit: 10;"></circle><circle class="st0" cx="-365" cy="299.8" r="14.9" style="fill: none; stroke: #000; stroke-width: 2; stroke-miterlimit: 10;"></circle><circle class="st1" cx="-380.8" cy="253.1" r="5.7" style="stroke: #000; stroke-width: 2; stroke-miterlimit: 10;"></circle><path d="M-366.5,271.1c0,1.1-0.9,2-2,2h-12.3c-0.7,0-1.3-0.4-1.7-1l-5.2-8.6l-11.4,11.3l11.4,6.2c0.6,0.3,1,1,1,1.8v17.7  c0,1.1-0.9,2-2,2s-2-0.9-2-2V284c0,0-14.3-7-14.9-7.6c-1.2-1.2-1.2-3.2,0-4.4l13.8-13.5c0.6-0.6,1.4-0.9,2.2-0.9  c0.8,0,3.5,1.3,3.8,1.8l6,9.8h11.1C-367.4,269.1-366.5,270.1-366.5,271.1z"></path></g><g id="SvgjsG1020" featurekey="text1" fill="#42413f" transform="matrix(4.100264549255371,0,0,4.100264549255371,-2.911189877838232,128.99735540468868)"><path d="M17.12 10 c0.2 0 0.3 0.1 0.26 0.3 l-3.18 13.4 c-0.06 0.22 -0.2 0.3 -0.38 0.3 l-1 0 c-0.18 0 -0.32 -0.08 -0.38 -0.3 l-3.4 -10.86 l-3.38 10.86 c-0.08 0.22 -0.2 0.3 -0.38 0.3 l-1 0 c-0.18 0 -0.34 -0.08 -0.4 -0.3 l-3.16 -13.4 c-0.04 -0.2 0.04 -0.3 0.24 -0.3 l1.24 0 c0.2 0 0.32 0.1 0.36 0.3 l2.34 10.64 l3.24 -10.64 c0.06 -0.2 0.18 -0.3 0.38 -0.3 l1.04 0 c0.2 0 0.32 0.1 0.38 0.3 l3.26 10.64 l2.34 -10.64 c0.02 -0.2 0.14 -0.3 0.34 -0.3 l1.24 0 z M24 13.92 c2.28 0 3.06 1.32 3.06 3.54 l0 6.24 c0 0.2 -0.1 0.3 -0.3 0.3 l-1.1 0 c-0.2 0 -0.3 -0.1 -0.3 -0.3 l0 -6.34 c0 -1.28 -0.44 -1.9 -1.68 -1.9 l-0.3 0 c-1.32 0 -2.12 0.74 -2.38 1.2 l0 7.04 c0 0.2 -0.1 0.3 -0.3 0.3 l-1.1 0 c-0.2 0 -0.3 -0.1 -0.3 -0.3 l0 -13.4 c0 -0.2 0.1 -0.3 0.3 -0.3 l1.1 0 c0.2 0 0.3 0.1 0.3 0.3 l0 5.1 c0.56 -0.86 1.52 -1.48 2.84 -1.48 l0.16 0 z  M33.58 13.92 c1.82 0 3.44 1.34 3.44 3.62 l0 1.52 c0 0.38 -0.24 0.62 -0.64 0.62 l-5.48 0 l0 1.02 c0 1.2 0.68 1.84 1.86 1.84 l0.82 0 c1.24 0 1.56 -0.36 2.06 -0.96 c0.14 -0.16 0.24 -0.18 0.44 -0.04 l0.58 0.4 c0.2 0.14 0.2 0.26 0.08 0.42 c-0.72 0.88 -1.4 1.74 -3.16 1.74 l-0.82 0 c-2.18 0 -3.6 -1.5 -3.6 -3.68 l0 -2.86 c0 -2.26 1.42 -3.64 3.6 -3.64 l0.82 0 z M35.300000000000004 18.3 l0 -0.9 c0 -1.32 -0.72 -1.94 -1.72 -1.94 l-0.82 0 c-1.18 0 -1.86 0.62 -1.86 1.96 l0 0.88 l4.4 0 z M43.24 13.92 c1.82 0 3.44 1.34 3.44 3.62 l0 1.52 c0 0.38 -0.24 0.62 -0.64 0.62 l-5.48 0 l0 1.02 c0 1.2 0.68 1.84 1.86 1.84 l0.82 0 c1.24 0 1.56 -0.36 2.06 -0.96 c0.14 -0.16 0.24 -0.18 0.44 -0.04 l0.58 0.4 c0.2 0.14 0.2 0.26 0.08 0.42 c-0.72 0.88 -1.4 1.74 -3.16 1.74 l-0.82 0 c-2.18 0 -3.6 -1.5 -3.6 -3.68 l0 -2.86 c0 -2.26 1.42 -3.64 3.6 -3.64 l0.82 0 z M44.96 18.3 l0 -0.9 c0 -1.32 -0.72 -1.94 -1.72 -1.94 l-0.82 0 c-1.18 0 -1.86 0.62 -1.86 1.96 l0 0.88 l4.4 0 z M48.78 10.3 c0 -0.2 0.1 -0.3 0.3 -0.3 l1.1 0 c0.2 0 0.3 0.1 0.3 0.3 l0 13.4 c0 0.2 -0.1 0.3 -0.3 0.3 l-1.1 0 c-0.2 0 -0.3 -0.1 -0.3 -0.3 l0 -13.4 z M53.1 10.3 c0 -0.2 0.1 -0.3 0.3 -0.3 l1.06 0 c0.2 0 0.3 0.1 0.3 0.3 l0 1.08 c0 0.2 -0.1 0.3 -0.3 0.3 l-1.06 0 c-0.2 0 -0.3 -0.1 -0.3 -0.3 l0 -1.08 z M53.08 14.3 c0 -0.2 0.1 -0.3 0.3 -0.3 l1.1 0 c0.2 0 0.3 0.1 0.3 0.3 l0 9.4 c0 0.2 -0.1 0.3 -0.3 0.3 l-1.1 0 c-0.2 0 -0.3 -0.1 -0.3 -0.3 l0 -9.4 z M61.5 13.92 c1.82 0 3.44 1.34 3.44 3.62 l0 1.52 c0 0.38 -0.24 0.62 -0.64 0.62 l-5.48 0 l0 1.02 c0 1.2 0.68 1.84 1.86 1.84 l0.82 0 c1.24 0 1.56 -0.36 2.06 -0.96 c0.14 -0.16 0.24 -0.18 0.44 -0.04 l0.58 0.4 c0.2 0.14 0.2 0.26 0.08 0.42 c-0.72 0.88 -1.4 1.74 -3.16 1.74 l-0.82 0 c-2.18 0 -3.6 -1.5 -3.6 -3.68 l0 -2.86 c0 -2.26 1.42 -3.64 3.6 -3.64 l0.82 0 z M63.22 18.3 l0 -0.9 c0 -1.32 -0.72 -1.94 -1.72 -1.94 l-0.82 0 c-1.18 0 -1.86 0.62 -1.86 1.96 l0 0.88 l4.4 0 z"></path></g><g id="SvgjsG1021" featurekey="text3" fill="#000000" transform="matrix(1.1004416942596436,0,0,1.1004416942596436,51.601240279635775,231.6409754837322)"><path d="M9.9659 11.729 l-7.3556 0.00049656 l0 4.9659 l4.5424 0 c0.15254 0 0.23729 0.067797 0.23729 0.23729 l0 0.81339 c0 0.15254 -0.084746 0.22034 -0.23729 0.22034 l-4.5424 0 l0 4.7458 l7.3559 0 c0.15254 0 0.23712 0.084746 0.23712 0.23712 l0 0.81356 c0 0.16949 -0.067797 0.23712 -0.23729 0.23712 l-8.4746 0 c-0.15254 0 -0.22034 -0.08458 -0.22034 -0.22017 l0 -13.119 c0 -0.15254 0.084746 -0.22034 0.22034 -0.22034 l8.4746 0 c0.15254 0 0.23712 0.084746 0.23712 0.22034 l0 0.84746 c0 0.13559 -0.067797 0.22034 -0.23729 0.22034 z M22.847389830508476 10.441 l-0.89797 0 c-0.16949 0 -0.23729 0.050847 -0.23729 0.22051 l0 8.1524 c0 2.8305 -2.1186 4.0169 -4.0341 4.0169 c-1.8644 0 -3.9492 -1.1864 -3.9492 -4.0169 l0 -8.1524 c0 -0.15254 -0.067797 -0.22034 -0.22034 -0.22034 l-0.88136 0 c-0.16949 0 -0.23729 0.067797 -0.23729 0.22034 l0 8.3388 c0.016784 2.7292 1.9659 5.1186 5.288 5.1186 c3.339 0 5.3559 -2.3895 5.3729 -5.1186 l0 -8.3388 c0 -0.16966 -0.067797 -0.22051 -0.20339 -0.22051 z M35.08428813559322 23.76288 c0.084746 0.13559 0.033732 0.23712 -0.11881 0.23712 l-0.88136 0 c-0.27119 0 -0.45763 -0.22017 -0.55932 -0.37271 l-3 -4.2542 l-0.050847 0 l-3.8814 0 l0 4.3898 c0 0.15254 -0.067797 0.23712 -0.23729 0.23712 l-0.88136 0 c-0.15254 0 -0.22034 -0.08458 -0.22034 -0.23712 l0 -13.102 c0 -0.15254 0.067797 -0.22034 0.22034 -0.22034 l5 0 c3.1695 0 4.6273 2.4576 4.6273 4.4746 c0 1.7288 -1.0508 3.7288 -3.2712 4.3051 z M26.593088135593216 11.729 l0.00016552 6.3727 l3.7797 0 c2.3051 0 3.4066 -1.6102 3.4066 -3.2203 c0 -1.5932 -1.1186 -3.1524 -3.4068 -3.1524 l-3.7797 0 z M43.915303389830505 24.11864 c3.8305 0 6.9492 -3.0337 6.9492 -6.8981 c0 -3.8475 -3.1186 -6.8983 -6.9492 -6.8983 c-3.8475 0 -6.9661 3.0508 -6.9661 6.8983 c0 3.8644 3.1186 6.8981 6.9661 6.8981 z M43.915303389830505 22.8307 c-3.0847 0 -5.6441 -2.5085 -5.6441 -5.6102 s2.5593 -5.6102 5.6441 -5.6102 c3.0846 0 5.61 2.5085 5.61 5.6102 s-2.5254 5.6102 -5.61 5.6102 z M58.20335593220339 10.441 c3.0846 0 4.6437 2.4407 4.6437 4.4576 c0 2.0847 -1.5593 4.4746 -4.6439 4.4746 l-3.7966 0 l0 4.3898 c0 0.15254 -0.067797 0.23712 -0.20339 0.23712 l-0.91525 0 c-0.15238 0 -0.22017 -0.08458 -0.22017 -0.23712 l0 -13.102 c0 -0.15254 0.067797 -0.22034 0.22017 -0.22034 l4.9154 0 z M58.152355932203385 18.1019 c2.1864 0 3.3559 -1.6102 3.3559 -3.2034 s-1.1695 -3.1695 -3.3559 -3.1695 l-3.7456 0 l0 6.3729 l3.7456 0 z M73.32183220338983 11.729 l-7.3556 0.00049656 l0 4.9659 l4.5424 0 c0.15254 0 0.23729 0.067797 0.23729 0.23729 l0 0.81339 c0 0.15254 -0.084746 0.22034 -0.23729 0.22034 l-4.5424 0 l0 4.7458 l7.3559 0 c0.15254 0 0.23712 0.084746 0.23712 0.23712 l0 0.81356 c0 0.16949 -0.067797 0.23712 -0.23729 0.23712 l-8.4746 0 c-0.15254 0 -0.22034 -0.08458 -0.22034 -0.22017 l0 -13.119 c0 -0.15254 0.084746 -0.22034 0.22034 -0.22034 l8.4746 0 c0.15254 0 0.23712 0.084746 0.23712 0.22034 l0 0.84746 c0 0.13559 -0.067797 0.22034 -0.23729 0.22034 z  M87.20324745762711 16.9324 c1.5932 0.52542 2.5254 1.8646 2.5254 3.4068 c0 2.1695 -1.8983 3.6608 -4.1356 3.6608 l-5.3898 0 c-0.15238 0 -0.22017 -0.08458 -0.22017 -0.22017 l0 -13.119 c0 -0.15254 0.067797 -0.22034 0.22017 -0.22034 l5.1017 0 c2.2034 0 3.7288 1.6949 3.7288 3.5085 c0 1.4237 -0.77966 2.4915 -1.8305 2.9831 z M85.01674745762712 16.5258 c3.4746 0 3.5763 -4.7966 0.067797 -4.7966 l-3.7627 0 l0 4.7966 l3.6949 0 z M85.33894745762711 22.7122 c4.0508 0 4.0678 -4.9322 -0.033898 -4.9322 l-3.9831 0 l0 4.9322 l4.0169 0 z M102.93216949152543 10.441 c0.08458 0 0.15188 0.10169 0.084083 0.20339 l-5.4064 7.7458 l0 5.3729 c0 0.15254 -0.067797 0.23712 -0.20339 0.23712 l-0.67797 0 c-0.28814 0 -0.44068 -0.18644 -0.44068 -0.47441 l0 -5.1356 l-5.4068 -7.7458 c-0.050847 -0.10169 0 -0.20339 0.10186 -0.20339 l1.1864 0 c0.10169 0 0.15254 0.067797 0.20339 0.16949 l4.5763 6.4746 l4.5764 -6.4746 c0.067797 -0.10169 0.10169 -0.16949 0.20339 -0.16949 l1.2034 0 z  M115.94901016949153 16.9324 c1.5932 0.52542 2.5254 1.8646 2.5254 3.4068 c0 2.1695 -1.8983 3.6608 -4.1356 3.6608 l-5.3898 0 c-0.15238 0 -0.22017 -0.08458 -0.22017 -0.22017 l0 -13.119 c0 -0.15254 0.067797 -0.22034 0.22017 -0.22034 l5.1017 0 c2.2034 0 3.7288 1.6949 3.7288 3.5085 c0 1.4237 -0.77966 2.4915 -1.8305 2.9831 z M113.76251016949153 16.5258 c3.4746 0 3.5763 -4.7966 0.067797 -4.7966 l-3.7627 0 l0 4.7966 l3.6949 0 z M114.08471016949153 22.7122 c4.0508 0 4.0678 -4.9322 -0.033898 -4.9322 l-3.9831 0 l0 4.9322 l4.0169 0 z M121.79663220338985 10.441 l-0.86441 0 c-0.15254 0 -0.22034 0.067797 -0.22034 0.22034 l0 13.119 c0 0.13559 0.067797 0.22017 0.22034 0.22017 l0.88136 0 c0.11864 0 0.20339 -0.08458 0.20339 -0.22017 l0 -13.119 c0 -0.15254 -0.084746 -0.22034 -0.22034 -0.22034 z M133.9658813559322 23.55932 c0.18644 0.18644 0.0673 0.44085 -0.1871 0.44085 l-0.96594 0 c-0.11864 0 -0.18644 -0.033732 -0.28814 -0.13543 l-6.8136 -6.712 l0 6.6271 c0 0.13559 -0.067797 0.22017 -0.20339 0.22017 l-0.91525 0 c-0.13559 0 -0.22017 -0.08458 -0.22017 -0.22017 l0 -12.322 c0 -0.30525 -0.033898 -0.52542 -0.067797 -0.76288 c-0.016949 -0.15254 0.033898 -0.25424 0.16949 -0.25424 l0.77966 0 c0.28814 0 0.45763 0.15254 0.45763 0.42373 l0 6 l6.1697 -6.2881 c0.084746 -0.084746 0.15254 -0.13559 0.27119 -0.13559 l1.0339 0 c0.25424 0 0.32203 0.25424 0.16966 0.4239 l-6.0678 6.1524 z M144.62691694915256 11.729 l-7.3556 0.00049656 l0 4.9659 l4.5424 0 c0.15254 0 0.23729 0.067797 0.23729 0.23729 l0 0.81339 c0 0.15254 -0.084746 0.22034 -0.23729 0.22034 l-4.5424 0 l0 4.7458 l7.3559 0 c0.15254 0 0.23712 0.084746 0.23712 0.23712 l0 0.81356 c0 0.16949 -0.067797 0.23712 -0.23729 0.23712 l-8.4746 0 c-0.15254 0 -0.22034 -0.08458 -0.22034 -0.22017 l0 -13.119 c0 -0.15254 0.084746 -0.22034 0.22034 -0.22034 l8.4746 0 c0.15254 0 0.23712 0.084746 0.23712 0.22034 l0 0.84746 c0 0.13559 -0.067797 0.22034 -0.23729 0.22034 z"></path></g></svg>
