<?xml version="1.0" standalone="no"?><!DOCTYPE svg PUBLIC "-//W3C//DTD SVG 1.1//EN" "http://www.w3.org/Graphics/SVG/1.1/DTD/svg11.dtd"><svg viewBox="0 0 588 345" preserveAspectRatio="xMidYMid meet" class=" logo" id="fcgeddeh" style="cursor:pointer;display:block;height:252px;max-height:70%;max-width:600px;min-height:auto;min-width:auto;pointer-events:none;width:385px;perspective-origin:192.5px 126px;transform-origin:192.5px 126px;" version="1.1" xmlns="http://www.w3.org/2000/svg" xmlns:xlink="http://www.w3.org/1999/xlink"><defs id="SvgjsDefs1057" style="cursor:pointer;height:auto;overflow-x:visible;overflow-y:visible;pointer-events:none;width:auto;perspective-origin:0px 0px;transform-origin:0px 0px;"/><g id="SvgjsG1058" featurekey="root" fill="#ffffff" transform="matrix(1,0,0,1,0,0)" style="cursor:pointer;height:auto;overflow-x:visible;overflow-y:visible;pointer-events:none;width:auto;perspective-origin:0px 0px;transform:matrix(1, 0, 0, 1, 0, 0);transform-origin:0px 0px;fill:rgb(255, 255, 255);"/><g id="SvgjsG1059" featurekey="container1" fill="#53393f" transform="matrix(1.4213897013901762,0,0,1.4213897013901762,50,30)" style="cursor:pointer;height:auto;overflow-x:visible;overflow-y:visible;pointer-events:none;width:auto;perspective-origin:0px 0px;transform:matrix(1.42139, 0, 0, 1.42139, 50, 30);transform-origin:0px 0px;fill:rgb(83, 57, 63);"><defs xmlns="http://www.w3.org/2000/svg" style="cursor:pointer;height:auto;overflow-x:visible;overflow-y:visible;pointer-events:none;width:auto;perspective-origin:0px 0px;transform-origin:0px 0px;fill:rgb(83, 57, 63);"/><path xmlns="http://www.w3.org/2000/svg" d="M100.254,0C44.974,0,0,44.974,0,100.254s44.974,100.254,100.254,100.254c55.28,0,100.254-44.974,100.254-100.254  S155.534,0,100.254,0z M100.254,195.508C47.731,195.508,5,152.777,5,100.254S47.731,5,100.254,5  c52.523,0,95.254,42.73,95.254,95.254S152.777,195.508,100.254,195.508z" style="cursor:pointer;height:auto;overflow-x:visible;overflow-y:visible;pointer-events:none;width:auto;perspective-origin:0px 0px;transform-origin:0px 0px;fill:rgb(83, 57, 63);d:path('M 100.254 0 C 44.974 0 0 44.974 0 100.254 s 44.974 100.254 100.254 100.254 c 55.28 0 100.254 -44.974 100.254 -100.254 S 155.534 0 100.254 0 Z M 100.254 195.508 C 47.731 195.508 5 152.777 5 100.254 S 47.731 5 100.254 5 c 52.523 0 95.254 42.73 95.254 95.254 S 152.777 195.508 100.254 195.508 Z');"/></g><g id="SvgjsG1060" featurekey="symbol1" fill="#53393f" transform="matrix(1.3943860596091333,0,0,1.3943860596091333,122.77969697641721,103.46963892637079)" style="cursor:pointer;height:auto;overflow-x:visible;overflow-y:visible;pointer-events:none;width:auto;perspective-origin:0px 0px;transform:matrix(1.39439, 0, 0, 1.39439, 122.78, 103.47);transform-origin:0px 0px;fill:rgb(83, 57, 63);"><circle cx="50" cy="14.673" r="11.424" style="cursor:pointer;height:auto;overflow-x:visible;overflow-y:visible;pointer-events:none;width:auto;perspective-origin:0px 0px;transform-origin:0px 0px;fill:rgb(83, 57, 63);cx:50px;cy:14.673px;r:11.424px;"/><path d="M51.381,44.024c0-0.002,0-0.003,0-0.005c0-1.525-0.618-2.761-1.381-2.761s-1.38,1.236-1.38,2.761v49.7  c0,1.524,0.618,2.761,1.38,2.761s1.381-1.236,1.381-2.761c0-0.002,0-0.003,0-0.006V44.024z" style="cursor:pointer;height:auto;overflow-x:visible;overflow-y:visible;pointer-events:none;width:auto;perspective-origin:0px 0px;transform-origin:0px 0px;fill:rgb(83, 57, 63);d:path('M 51.381 44.024 c 0 -0.002 0 -0.003 0 -0.005 c 0 -1.525 -0.618 -2.761 -1.381 -2.761 s -1.38 1.236 -1.38 2.761 v 49.7 c 0 1.524 0.618 2.761 1.38 2.761 s 1.381 -1.236 1.381 -2.761 c 0 -0.002 0 -0.003 0 -0.006 V 44.024 Z');"/><path d="M26.531,42.283v6.204c0.217-0.193,0.417-0.436,0.596-0.728l4.211-6.856h-3.427C26.666,40.903,26.531,41.868,26.531,42.283z" style="cursor:pointer;height:auto;overflow-x:visible;overflow-y:visible;pointer-events:none;width:auto;perspective-origin:0px 0px;transform-origin:0px 0px;fill:rgb(83, 57, 63);d:path('M 26.531 42.283 v 6.204 c 0.217 -0.193 0.417 -0.436 0.596 -0.728 l 4.211 -6.856 h -3.427 C 26.666 40.903 26.531 41.868 26.531 42.283 Z');"/><path d="M69.545,32.267L67.65,16.984c-0.18-1.445-1.496-2.471-2.939-2.292c-0.096,0.012-0.187,0.029-0.275,0.05  c-0.203-0.045-0.414-0.07-0.631-0.07h-1c0,7.06-5.744,12.804-12.805,12.804s-12.805-5.744-12.805-12.804h-1  c-0.218,0-0.43,0.025-0.634,0.071c-0.085-0.022-0.175-0.039-0.27-0.051c-1.445-0.179-2.761,0.847-2.94,2.292l-1.895,15.282  l-1.793,3.114h6.067l0.586-0.953c0.301-0.492,0.42-1.042,0.379-1.577l0.182-2.389l0.996,4.919h26.257l0.945-4.673l0.23,2.143  c-0.04,0.534,0.078,1.085,0.38,1.577l0.586,0.953h6.067L69.545,32.267z" style="cursor:pointer;height:auto;overflow-x:visible;overflow-y:visible;pointer-events:none;width:auto;perspective-origin:0px 0px;transform-origin:0px 0px;fill:rgb(83, 57, 63);d:path('M 69.545 32.267 L 67.65 16.984 c -0.18 -1.445 -1.496 -2.471 -2.939 -2.292 c -0.096 0.012 -0.187 0.029 -0.275 0.05 c -0.203 -0.045 -0.414 -0.07 -0.631 -0.07 h -1 c 0 7.06 -5.744 12.804 -12.805 12.804 s -12.805 -5.744 -12.805 -12.804 h -1 c -0.218 0 -0.43 0.025 -0.634 0.071 c -0.085 -0.022 -0.175 -0.039 -0.27 -0.051 c -1.445 -0.179 -2.761 0.847 -2.94 2.292 l -1.895 15.282 l -1.793 3.114 h 6.067 l 0.586 -0.953 c 0.301 -0.492 0.42 -1.042 0.379 -1.577 l 0.182 -2.389 l 0.996 4.919 h 26.257 l 0.945 -4.673 l 0.23 2.143 c -0.04 0.534 0.078 1.085 0.38 1.577 l 0.586 0.953 h 6.067 L 69.545 32.267 Z');"/><path d="M38.794,44.883c0,0.333,0.059,0.652,0.162,0.95v18.538l0.974,11.618c0,1.613,1.309,2.922,2.922,2.922h0.734  c1.614,0,2.922-1.309,2.922-2.922l0.73-11.618V47.805l0,0v-3.786c0-1.283,0.335-2.375,0.889-3.116H37.99L38.794,44.883z" style="cursor:pointer;height:auto;overflow-x:visible;overflow-y:visible;pointer-events:none;width:auto;perspective-origin:0px 0px;transform-origin:0px 0px;fill:rgb(83, 57, 63);d:path('M 38.794 44.883 c 0 0.333 0.059 0.652 0.162 0.95 v 18.538 l 0.974 11.618 c 0 1.613 1.309 2.922 2.922 2.922 h 0.734 c 1.614 0 2.922 -1.309 2.922 -2.922 l 0.73 -11.618 V 47.805 l 0 0 v -3.786 c 0 -1.283 0.335 -2.375 0.889 -3.116 H 37.99 L 38.794 44.883 Z');"/><path d="M52.762,44.019l0.044,0.695c-0.027,0.161-0.044,0.324-0.044,0.492l0.73,16.244c0,1.614,1.308,2.922,2.922,2.922h0.978  c1.614,0,2.922-1.308,2.922-2.922l0.698-15.528c0.123-0.323,0.193-0.672,0.193-1.038l0.805-3.98H51.873  C52.426,41.644,52.762,42.736,52.762,44.019z" style="cursor:pointer;height:auto;overflow-x:visible;overflow-y:visible;pointer-events:none;width:auto;perspective-origin:0px 0px;transform-origin:0px 0px;fill:rgb(83, 57, 63);d:path('M 52.762 44.019 l 0.044 0.695 c -0.027 0.161 -0.044 0.324 -0.044 0.492 l 0.73 16.244 c 0 1.614 1.308 2.922 2.922 2.922 h 0.978 c 1.614 0 2.922 -1.308 2.922 -2.922 l 0.698 -15.528 c 0.123 -0.323 0.193 -0.672 0.193 -1.038 l 0.805 -3.98 H 51.873 C 52.426 41.644 52.762 42.736 52.762 44.019 Z');"/><rect x="40.336" y="80.211" width="5.522" height="1.381" style="cursor:pointer;height:1.381px;overflow-x:visible;overflow-y:visible;pointer-events:none;width:5.522px;perspective-origin:0px 0px;transform-origin:0px 0px;fill:rgb(83, 57, 63);x:40.336px;y:80.211px;"/><rect x="54.142" y="65.805" width="5.522" height="1.381" style="cursor:pointer;height:1.381px;overflow-x:visible;overflow-y:visible;pointer-events:none;width:5.522px;perspective-origin:0px 0px;transform-origin:0px 0px;fill:rgb(83, 57, 63);x:54.142px;y:65.805px;"/><path d="M73.469,42.283v6.204c-0.217-0.193-0.416-0.436-0.596-0.728l-4.211-6.856h3.427C73.334,40.903,73.469,41.868,73.469,42.283z  " style="cursor:pointer;height:auto;overflow-x:visible;overflow-y:visible;pointer-events:none;width:auto;perspective-origin:0px 0px;transform-origin:0px 0px;fill:rgb(83, 57, 63);d:path('M 73.469 42.283 v 6.204 c -0.217 -0.193 -0.416 -0.436 -0.596 -0.728 l -4.211 -6.856 h 3.427 C 73.334 40.903 73.469 41.868 73.469 42.283 Z');"/><path d="M72.089,39.522c2.761,0,2.761,2.761,2.761,2.761v11.044h0.004c-0.002,0.026-0.004,0.055-0.004,0.081  c0,0.762,0.617,1.38,1.381,1.38c0.762,0,1.38-0.618,1.38-1.38c0-0.026-0.003-0.055-0.003-0.081h0.003V42.283  c0-2.761-2.761-5.521-5.521-5.521H27.911c-2.76,0-5.521,2.761-5.521,5.521v11.044h0.003c-0.001,0.026-0.003,0.055-0.003,0.081  c0,0.762,0.618,1.38,1.38,1.38s1.381-0.618,1.381-1.38c0-0.026-0.003-0.055-0.004-0.081h0.004V42.283c0,0,0-2.761,2.76-2.761H72.089  z" style="cursor:pointer;height:auto;overflow-x:visible;overflow-y:visible;pointer-events:none;width:auto;perspective-origin:0px 0px;transform-origin:0px 0px;fill:rgb(83, 57, 63);d:path('M 72.089 39.522 c 2.761 0 2.761 2.761 2.761 2.761 v 11.044 h 0.004 c -0.002 0.026 -0.004 0.055 -0.004 0.081 c 0 0.762 0.617 1.38 1.381 1.38 c 0.762 0 1.38 -0.618 1.38 -1.38 c 0 -0.026 -0.003 -0.055 -0.003 -0.081 h 0.003 V 42.283 c 0 -2.761 -2.761 -5.521 -5.521 -5.521 H 27.911 c -2.76 0 -5.521 2.761 -5.521 5.521 v 11.044 h 0.003 c -0.001 0.026 -0.003 0.055 -0.003 0.081 c 0 0.762 0.618 1.38 1.38 1.38 s 1.381 -0.618 1.381 -1.38 c 0 -0.026 -0.003 -0.055 -0.004 -0.081 h 0.004 V 42.283 c 0 0 0 -2.761 2.76 -2.761 H 72.089 Z');"/></g><g id="SvgjsG1061" featurekey="text1" fill="#3d519a" transform="matrix(3.3333333333333335,0,0,3.3333333333333335,380.6666644414266,109.66666666666666)" style="cursor:pointer;height:auto;overflow-x:visible;overflow-y:visible;pointer-events:none;width:auto;perspective-origin:0px 0px;transform:matrix(3.33333, 0, 0, 3.33333, 380.667, 109.667);transform-origin:0px 0px;fill:rgb(61, 81, 154);"><path d="M8.96 16.42 c0.94 0.54 1.56 1.52 1.56 3.04 l0 0.84 c0 2.62 -1.38 3.7 -4.02 3.7 l-4.2 0 l-0.7 0 c-0.2 0 -0.3 -0.1 -0.3 -0.3 l0 -13.4 c0 -0.2 0.1 -0.3 0.3 -0.3 l1.14 0 l3.72 0 c2.4 0 3.5 1.12 3.5 3.66 c0 1.26 -0.38 2.16 -1 2.76 z M8.22 13.66 c0 -1.7 -0.4 -2.08 -1.76 -2.08 l-3.42 0 l0 4.28 l3.42 0 c1.36 0 1.76 -0.5 1.76 -2.2 z M8.78 20.3 l0 -0.84 c0 -1.78 -0.68 -2.16 -2.28 -2.16 l-3.46 0 l0 5.12 l3.46 0 c1.6 0 2.28 -0.36 2.28 -2.12 z M20.740000000000002 14 c0.22 0 0.24 0.16 0.16 0.34 l-5.28 13.32 c-0.12 0.28 -0.28 0.34 -0.44 0.34 l-1.08 0 c-0.24 0 -0.28 -0.16 -0.2 -0.36 l1.66 -4.18 l-3.62 -9.12 c-0.06 -0.18 -0.04 -0.34 0.18 -0.34 l1.18 0 c0.16 0 0.26 0.08 0.36 0.32 l2.74 7.04 l2.8 -7.04 c0.1 -0.24 0.18 -0.32 0.36 -0.32 l1.18 0 z  M36.4 16.42 c0.94 0.54 1.56 1.52 1.56 3.04 l0 0.84 c0 2.62 -1.38 3.7 -4.02 3.7 l-4.2 0 l-0.7 0 c-0.2 0 -0.3 -0.1 -0.3 -0.3 l0 -13.4 c0 -0.2 0.1 -0.3 0.3 -0.3 l1.14 0 l3.72 0 c2.4 0 3.5 1.12 3.5 3.66 c0 1.26 -0.38 2.16 -1 2.76 z M35.66 13.66 c0 -1.7 -0.4 -2.08 -1.76 -2.08 l-3.42 0 l0 4.28 l3.42 0 c1.36 0 1.76 -0.5 1.76 -2.2 z M36.22 20.3 l0 -0.84 c0 -1.78 -0.68 -2.16 -2.28 -2.16 l-3.46 0 l0 5.12 l3.46 0 c1.6 0 2.28 -0.36 2.28 -2.12 z M40.28 10.3 c0 -0.2 0.1 -0.3 0.3 -0.3 l1.06 0 c0.2 0 0.3 0.1 0.3 0.3 l0 1.08 c0 0.2 -0.1 0.3 -0.3 0.3 l-1.06 0 c-0.2 0 -0.3 -0.1 -0.3 -0.3 l0 -1.08 z M40.26 14.3 c0 -0.2 0.1 -0.3 0.3 -0.3 l1.1 0 c0.2 0 0.3 0.1 0.3 0.3 l0 9.4 c0 0.2 -0.1 0.3 -0.3 0.3 l-1.1 0 c-0.2 0 -0.3 -0.1 -0.3 -0.3 l0 -9.4 z M44.86 10 l1.1 0 c0.2 0 0.3 0.1 0.3 0.3 l0 7.98 l4 -4.06 c0.12 -0.14 0.24 -0.22 0.4 -0.22 l1.26 0 c0.26 0 0.38 0.28 0.14 0.52 l-3.68 3.74 l4.18 5.28 c0.16 0.2 0.08 0.46 -0.2 0.46 l-1.1 0 c-0.22 0 -0.38 -0.06 -0.54 -0.3 l-3.48 -4.32 l-0.98 0.98 l0 3.34 c0 0.2 -0.1 0.3 -0.3 0.3 l-1.1 0 c-0.2 0 -0.3 -0.1 -0.3 -0.3 l0 -13.4 c0 -0.2 0.1 -0.3 0.3 -0.3 z M58.660000000000004 13.92 c1.82 0 3.44 1.34 3.44 3.62 l0 1.52 c0 0.38 -0.24 0.62 -0.64 0.62 l-5.48 0 l0 1.02 c0 1.2 0.68 1.84 1.86 1.84 l0.82 0 c1.24 0 1.56 -0.36 2.06 -0.96 c0.14 -0.16 0.24 -0.18 0.44 -0.04 l0.58 0.4 c0.2 0.14 0.2 0.26 0.08 0.42 c-0.72 0.88 -1.4 1.74 -3.16 1.74 l-0.82 0 c-2.18 0 -3.6 -1.5 -3.6 -3.68 l0 -2.86 c0 -2.26 1.42 -3.64 3.6 -3.64 l0.82 0 z M60.38 18.3 l0 -0.9 c0 -1.32 -0.72 -1.94 -1.72 -1.94 l-0.82 0 c-1.18 0 -1.86 0.62 -1.86 1.96 l0 0.88 l4.4 0 z" style="cursor:pointer;height:auto;overflow-x:visible;overflow-y:visible;pointer-events:none;width:auto;perspective-origin:0px 0px;transform-origin:0px 0px;fill:rgb(61, 81, 154);d:path('M 8.96 16.42 c 0.94 0.54 1.56 1.52 1.56 3.04 l 0 0.84 c 0 2.62 -1.38 3.7 -4.02 3.7 l -4.2 0 l -0.7 0 c -0.2 0 -0.3 -0.1 -0.3 -0.3 l 0 -13.4 c 0 -0.2 0.1 -0.3 0.3 -0.3 l 1.14 0 l 3.72 0 c 2.4 0 3.5 1.12 3.5 3.66 c 0 1.26 -0.38 2.16 -1 2.76 Z M 8.22 13.66 c 0 -1.7 -0.4 -2.08 -1.76 -2.08 l -3.42 0 l 0 4.28 l 3.42 0 c 1.36 0 1.76 -0.5 1.76 -2.2 Z M 8.78 20.3 l 0 -0.84 c 0 -1.78 -0.68 -2.16 -2.28 -2.16 l -3.46 0 l 0 5.12 l 3.46 0 c 1.6 0 2.28 -0.36 2.28 -2.12 Z M 20.74 14 c 0.22 0 0.24 0.16 0.16 0.34 l -5.28 13.32 c -0.12 0.28 -0.28 0.34 -0.44 0.34 l -1.08 0 c -0.24 0 -0.28 -0.16 -0.2 -0.36 l 1.66 -4.18 l -3.62 -9.12 c -0.06 -0.18 -0.04 -0.34 0.18 -0.34 l 1.18 0 c 0.16 0 0.26 0.08 0.36 0.32 l 2.74 7.04 l 2.8 -7.04 c 0.1 -0.24 0.18 -0.32 0.36 -0.32 l 1.18 0 Z M 36.4 16.42 c 0.94 0.54 1.56 1.52 1.56 3.04 l 0 0.84 c 0 2.62 -1.38 3.7 -4.02 3.7 l -4.2 0 l -0.7 0 c -0.2 0 -0.3 -0.1 -0.3 -0.3 l 0 -13.4 c 0 -0.2 0.1 -0.3 0.3 -0.3 l 1.14 0 l 3.72 0 c 2.4 0 3.5 1.12 3.5 3.66 c 0 1.26 -0.38 2.16 -1 2.76 Z M 35.66 13.66 c 0 -1.7 -0.4 -2.08 -1.76 -2.08 l -3.42 0 l 0 4.28 l 3.42 0 c 1.36 0 1.76 -0.5 1.76 -2.2 Z M 36.22 20.3 l 0 -0.84 c 0 -1.78 -0.68 -2.16 -2.28 -2.16 l -3.46 0 l 0 5.12 l 3.46 0 c 1.6 0 2.28 -0.36 2.28 -2.12 Z M 40.28 10.3 c 0 -0.2 0.1 -0.3 0.3 -0.3 l 1.06 0 c 0.2 0 0.3 0.1 0.3 0.3 l 0 1.08 c 0 0.2 -0.1 0.3 -0.3 0.3 l -1.06 0 c -0.2 0 -0.3 -0.1 -0.3 -0.3 l 0 -1.08 Z M 40.26 14.3 c 0 -0.2 0.1 -0.3 0.3 -0.3 l 1.1 0 c 0.2 0 0.3 0.1 0.3 0.3 l 0 9.4 c 0 0.2 -0.1 0.3 -0.3 0.3 l -1.1 0 c -0.2 0 -0.3 -0.1 -0.3 -0.3 l 0 -9.4 Z M 44.86 10 l 1.1 0 c 0.2 0 0.3 0.1 0.3 0.3 l 0 7.98 l 4 -4.06 c 0.12 -0.14 0.24 -0.22 0.4 -0.22 l 1.26 0 c 0.26 0 0.38 0.28 0.14 0.52 l -3.68 3.74 l 4.18 5.28 c 0.16 0.2 0.08 0.46 -0.2 0.46 l -1.1 0 c -0.22 0 -0.38 -0.06 -0.54 -0.3 l -3.48 -4.32 l -0.98 0.98 l 0 3.34 c 0 0.2 -0.1 0.3 -0.3 0.3 l -1.1 0 c -0.2 0 -0.3 -0.1 -0.3 -0.3 l 0 -13.4 c 0 -0.2 0.1 -0.3 0.3 -0.3 Z M 58.66 13.92 c 1.82 0 3.44 1.34 3.44 3.62 l 0 1.52 c 0 0.38 -0.24 0.62 -0.64 0.62 l -5.48 0 l 0 1.02 c 0 1.2 0.68 1.84 1.86 1.84 l 0.82 0 c 1.24 0 1.56 -0.36 2.06 -0.96 c 0.14 -0.16 0.24 -0.18 0.44 -0.04 l 0.58 0.4 c 0.2 0.14 0.2 0.26 0.08 0.42 c -0.72 0.88 -1.4 1.74 -3.16 1.74 l -0.82 0 c -2.18 0 -3.6 -1.5 -3.6 -3.68 l 0 -2.86 c 0 -2.26 1.42 -3.64 3.6 -3.64 l 0.82 0 Z M 60.38 18.3 l 0 -0.9 c 0 -1.32 -0.72 -1.94 -1.72 -1.94 l -0.82 0 c -1.18 0 -1.86 0.62 -1.86 1.96 l 0 0.88 l 4.4 0 Z');"/></g></svg>